<svg version="1.1" xmlns="http://www.w3.org/2000/svg" xmlns:xlink="http://www.w3.org/1999/xlink">
    <symbol id="vk"> 
        <path fill-rule="evenodd" clip-rule="evenodd" d="M23.45 1.61585C23.616 1.06985 23.45 0.667847 22.655 0.667847H20.03C19.362 0.667847 
        19.054 1.01485 18.887 1.39785C18.887 1.39785 17.552 4.59385 15.661 6.66985C15.049 7.27185 14.771 7.46285 14.437 7.46285C14.27 7.46285 
        14.019 7.27185 14.019 6.72485V1.61585C14.019 0.959847 13.835 0.667847 13.279 0.667847H9.151C8.734 0.667847 8.483 0.971847 8.483 1.26085C8.483 
        1.88185 9.429 2.02585 9.526 3.77385V7.57185C9.526 8.40485 9.373 8.55585 9.039 8.55585C8.149 8.55585 5.984 5.34485 4.699 1.67085C4.45 0.955846 
        4.198 0.667847 3.527 0.667847H0.9C0.15 0.667847 0 1.01485 0 1.39785C0 2.07985 0.89 5.46785 4.145 9.94885C6.315 13.0088 9.37 14.6678 12.153 14.6678C13.822 
        14.6678 14.028 14.2998 14.028 13.6648V11.3518C14.028 10.6148 14.186 10.4678 14.715 10.4678C15.105 10.4678 15.772 10.6598 17.33 12.1348C19.11 13.8838 19.403 
        14.6678 20.405 14.6678H23.03C23.78 14.6678 24.156 14.2998 23.94 13.5718C23.702 12.8478 22.852 11.7968 21.725 10.5498C21.113 9.83985 20.195 9.07485 19.916 
        8.69185C19.527 8.20085 19.638 7.98185 19.916 7.54485C19.916 7.54485 23.116 3.11885 23.449 1.61585H23.45Z"/>
    </symbol>
 
    <symbol id="telega">
            <path d="M19.2957 1.03085L0.690684 8.24246C-0.0580144 8.57829 -0.311245 9.25083 0.509724
             9.61583L5.28271 11.1405L16.8232 3.97138C17.4533 3.52132 18.0984 3.64133 17.5433 4.13643L7.63159
              13.1572L7.32024 16.9748C7.60862 17.5642 8.13666 17.5669 8.47348 17.274L11.2157 14.6658L15.9122
               18.2008C17.003 18.85 17.5965 18.4311 17.8312 17.2413L20.9117 2.57948C21.2315 1.11501 20.6861
                0.469757 19.2957 1.03085Z"/>
    </symbol>


     <symbol id="twitter">
           <path d="M23.7807 2.29536C22.89 2.68933 21.9455 2.94808 20.9783 3.06303C21.9977 2.45336
            22.7607 1.49388 23.125 0.363358C22.1683 0.932692 21.1195 1.33169 20.0263 1.54752C19.292
             0.761867 18.3188 0.240815 17.2578 0.0653739C16.1968 -0.110068 15.1076 0.0699312 14.1595
              0.577387C13.2114 1.08484 12.4575 1.89132 12.015 2.87145C11.5725 3.85158 11.4662 4.95044
               11.7127 5.99719C9.77263 5.89996 7.87472 5.3958 6.14217 4.51747C4.40962 3.63913 2.88115
                2.40625 1.656 0.898859C1.22234 1.64372 0.994451 2.49046 0.99567 3.35236C0.99567 5.04402
                 1.85667 6.53853 3.16567 7.41353C2.39101 7.38914 1.63341 7.17994 0.956003 6.80336V6.86403C0.956237
                  7.99068 1.3461 9.08258 2.05949 9.9546C2.77288 10.8266 3.7659 11.4251 4.87017 11.6485C4.15105
                   11.8434 3.39703 11.8721 2.66517 11.7325C2.97652 12.7023 3.58334 13.5504 4.40069 14.1582C5.21804
                    14.7659 6.20499 15.1028 7.22334 15.1217C6.21123 15.9166 5.05238 16.5042 3.81303 16.8509C2.57368
                     17.1976 1.27815 17.2967 0.00050354 17.1424C2.23082 18.5767 4.82712 19.3382 7.47884 19.3357C16.454
                      19.3357 21.3622 11.9005 21.3622 5.45236C21.3622 5.24236 21.3563 5.03003 21.347 4.82236C22.3023
                       4.13189 23.1269 3.27655 23.7818 2.29653L23.7807 2.29536Z"/>

    </symbol>
</svg>